<?xml version="1.0" encoding="UTF-8" standalone="no"?>
<!-- Created with Inkscape (http://www.inkscape.org/) -->

<svg
   width="512"
   height="512"
   viewBox="0 0 512 512"
   version="1.1"
   id="svg1"
   inkscape:export-filename="favicon.svg"
   inkscape:export-xdpi="96"
   inkscape:export-ydpi="96"
   xmlns:inkscape="http://www.inkscape.org/namespaces/inkscape"
   xmlns:sodipodi="http://sodipodi.sourceforge.net/DTD/sodipodi-0.dtd"
   xmlns="http://www.w3.org/2000/svg"
   xmlns:svg="http://www.w3.org/2000/svg">
  <sodipodi:namedview
     id="namedview1"
     pagecolor="#ffffff"
     bordercolor="#000000"
     borderopacity="0.25"
     inkscape:showpageshadow="2"
     inkscape:pageopacity="0.0"
     inkscape:pagecheckerboard="0"
     inkscape:deskcolor="#d1d1d1"
     inkscape:document-units="px">
    <inkscape:page
       x="0"
       y="0"
       width="512"
       height="512"
       id="page2"
       margin="0"
       bleed="0" />
  </sodipodi:namedview>
  <defs
     id="defs1">
    <marker
       style="overflow:visible"
       id="Square"
       refX="0"
       refY="0"
       orient="auto"
       inkscape:stockid="Square"
       markerWidth="0.44999999"
       markerHeight="0.44999999"
       viewBox="0 0 1 1"
       inkscape:isstock="true"
       inkscape:collect="always"
       preserveAspectRatio="xMidYMid">
      <path
         transform="scale(0.5)"
         style="fill:context-stroke;fill-rule:evenodd;stroke:none"
         d="M -5,-5 V 5 H 5 V -5 Z"
         id="path18" />
    </marker>
  </defs>
  <g
     inkscape:label="Layer 1"
     inkscape:groupmode="layer"
     id="layer1">
    <g
       id="g13"
       transform="matrix(11.616225,0,0,11.616225,-998.30723,-562.77947)">
      <path
         sodipodi:type="star"
         style="fill:none;stroke:#258ae4;stroke-width:1.80884;stroke-dasharray:none;stroke-opacity:1"
         id="path2"
         inkscape:flatsided="true"
         sodipodi:sides="6"
         sodipodi:cx="102.31813"
         sodipodi:cy="68.21209"
         sodipodi:r1="16.763823"
         sodipodi:r2="14.517895"
         sodipodi:arg1="0.54208895"
         sodipodi:arg2="1.0656877"
         inkscape:rounded="0"
         inkscape:randomized="0"
         d="m 116.67857,76.860991 -14.67039,8.112056 -14.360438,-8.648902 0.309948,-16.760957 14.67039,-8.112055 14.36044,8.648901 z"
         transform="matrix(0.55182527,0,0,0.53983217,51.56794,41.343404)" />
      <path
         style="fill:none;stroke:#258ae4;stroke-width:1.054;stroke-dasharray:none;stroke-opacity:1"
         d="m 99.951922,73.597253 5.711538,3.508515"
         id="path3" />
      <path
         style="fill:none;stroke:#258ae4;stroke-width:1.054;stroke-dasharray:none;stroke-opacity:1"
         d="m 116.3522,73.678845 -5.30358,3.018957"
         id="path4" />
      <path
         style="baseline-shift:baseline;display:inline;overflow:visible;opacity:1;vector-effect:none;fill:#f37611;stroke-linecap:square;enable-background:accumulate;stop-color:#000000;stop-opacity:1"
         d="m 108.14844,72.142578 -2.13178,1.135416 -1.66158,0.985938 1.77344,1.008073 0.86783,-0.555989 0.96211,-0.645443 0.95508,0.764844 -5.19674,7.029817 4.13867,2.365235 2.81641,-1.535157 1.46601,-0.916015 -1.53437,-1.042969 -0.76954,0.417969 -1.95703,1.066406 -1.57422,-0.898437 5.29493,-7.134766 z"
         id="path5"
         sodipodi:nodetypes="ccccccccccccccccc" />
      <path
         style="fill:none;stroke:#343b42;stroke-width:1.754;stroke-linecap:square;stroke-linejoin:miter;stroke-dasharray:none;stroke-opacity:1;marker-start:url(#Square);marker-end:url(#Square)"
         d="M 88.039285,54.912363 H 127.85687"
         id="path6"
         sodipodi:nodetypes="cc" />
      <rect
         style="fill:#343b42;fill-opacity:1;stroke:#343b42;stroke-width:1.44728;stroke-linecap:square;stroke-linejoin:round;stroke-dasharray:none;stroke-opacity:1"
         id="rect5"
         width="8.5476446"
         height="6.5894036"
         x="103.71504"
         y="52.392796" />
      <path
         sodipodi:type="star"
         style="fill:#343b42;fill-opacity:1;stroke:#343b42;stroke-width:1.754;stroke-linecap:square;stroke-linejoin:round;stroke-dasharray:none;stroke-opacity:1"
         id="path11"
         inkscape:flatsided="true"
         sodipodi:sides="3"
         sodipodi:cx="98.923134"
         sodipodi:cy="59.353882"
         sodipodi:r1="4.6250081"
         sodipodi:r2="2.3125041"
         sodipodi:arg1="0.52359878"
         sodipodi:arg2="1.5707963"
         inkscape:rounded="0"
         inkscape:randomized="0"
         d="m 102.92851,61.666386 -8.010751,0 4.005375,-6.937512 z"
         inkscape:transform-center-y="0.79316386"
         transform="matrix(1.0216157,0,0,-0.68597095,6.9472008,101.55735)" />
      <path
         style="baseline-shift:baseline;display:inline;overflow:visible;opacity:1;vector-effect:none;fill:#343b42;stroke-linecap:square;stroke-linejoin:round;enable-background:accumulate;stop-color:#000000;stop-opacity:1"
         d="m 108.51172,62.455078 -1.1543,0.0332 0.0156,0.576172 c 0.0259,0.921018 0.14586,1.780121 -0.006,2.439453 -0.14776,0.642129 -0.48679,1.146269 -1.57813,1.59961 l -7.201169,0.0918 0.107421,0.0098 c -0.753884,-0.13336 -1.439851,0.26973 -1.988281,0.832031 -0.54843,0.562301 -0.99208,1.333906 -1.220703,2.203125 -0.228623,0.86922 -0.235017,1.848748 0.158203,2.767578 0.393221,0.918831 1.180844,1.779033 2.425326,2.339714 0,0 0.397403,0.229978 1.005118,0.271319 L 99.078125,74.5 98.552734,74.261719 c -1.032278,-0.465076 -1.573407,-1.068153 -1.847656,-1.708985 -0.274249,-0.640831 -0.279684,-1.349741 -0.103516,-2.019531 0.176169,-0.66979 0.540047,-1.287955 0.931641,-1.689453 0.391594,-0.401498 0.778549,-0.534563 0.962891,-0.501953 0.03549,0.0059 0.07145,0.0086 0.107422,0.0078 l 7.343754,-0.09375 c 0.0703,-0.0011 0.13978,-0.01497 0.20507,-0.04102 1.41222,-0.561213 2.11778,-1.488081 2.33985,-2.453125 0.22207,-0.965044 0.0581,-1.909892 0.0352,-2.728516 z"
         id="path12"
         sodipodi:nodetypes="cccccccsssccccsssccccscc" />
    </g>
  </g>
</svg>
